<?xml version="1.0" encoding="UTF-8"?>
<svg version="1.1" xmlns="http://www.w3.org/2000/svg" width="32" height="32">
<path d="M0 0 C396 0 792 0 1200 0 C1200 396 1200 792 1200 1200 C804 1200 408 1200 0 1200 C0 804 0 408 0 0 Z " fill="#A41D23" transform="translate(0,0)"/>
<path d="M0 0 C0.82665161 0.00310181 1.65330322 0.00620361 2.50500488 0.00939941 C4.52288292 0.01742134 6.54074307 0.02974876 8.55859375 0.04296875 C9.36158073 68.60820555 9.93435262 137.17463907 10.42292213 205.74270821 C10.44478758 208.81064989 10.46665472 211.87859156 10.48852539 214.9465332 C10.49394357 215.70699105 10.49936176 216.46744889 10.50494413 217.25095092 C10.58645778 228.67847476 10.67161448 240.10596717 10.7590332 251.53344727 C10.89734374 269.63684003 11.03082617 287.74026304 11.15625 305.84375 C11.16137857 306.58374703 11.16650715 307.32374406 11.17179114 308.08616525 C11.64823821 377.07176055 11.65843126 446.05606911 11.55859375 515.04296875 C18.48859375 515.04296875 25.41859375 515.04296875 32.55859375 515.04296875 C32.48966919 513.07908707 32.42074463 511.11520538 32.34973145 509.09181213 C31.45148868 482.13274159 31.35866463 455.17822322 31.28811383 428.20640731 C31.27150267 422.21271727 31.25056716 416.21904326 31.22969333 410.22536693 C31.18751871 398.08551588 31.14903703 385.94565613 31.11276245 373.80578613 C31.05907264 355.8623699 30.99918011 337.91897714 30.93774414 319.97558594 C30.93256461 318.46138946 30.92738509 316.94719299 30.92220557 315.43299651 C30.90139978 309.35367133 30.88056377 303.27434626 30.85963351 297.19502151 C30.83332109 289.55020792 30.80718355 281.90539382 30.78148079 274.26057816 C30.57744589 213.59043131 30.31017135 152.92071549 30.0130043 92.25094843 C29.98476848 86.4771039 29.95675073 80.70325832 29.92871094 74.92941284 C29.80738998 49.9672545 29.68429416 25.00510543 29.55859375 0.04296875 C32.60556616 0.0290005 35.65247384 0.01879454 38.69946289 0.01074219 C39.98656033 0.00426163 39.98656033 0.00426163 41.29965973 -0.00234985 C47.29114098 -0.01422041 53.07923998 0.30391993 58.99609375 1.29296875 C59.86331055 1.42864258 60.73052734 1.56431641 61.62402344 1.70410156 C64.27298596 2.12912525 66.91584172 2.58102227 69.55859375 3.04296875 C70.37408691 3.1821875 71.18958008 3.32140625 72.02978516 3.46484375 C133.42873826 14.15368024 187.44990287 43.98383924 231.43359375 87.66796875 C231.92041626 88.14934296 232.40723877 88.63071716 232.90881348 89.12667847 C239.58682141 95.74892811 245.73630356 102.65336659 251.55859375 110.04296875 C252.04553711 110.65027832 252.53248047 111.25758789 253.03417969 111.88330078 C282.55089763 148.80827299 301.86997789 192.59564237 311.30859375 238.79296875 C311.50743164 239.76169922 311.70626953 240.73042969 311.91113281 241.72851562 C315.22934395 258.76920884 315.96505879 275.46526841 315.93359375 292.79296875 C315.93277802 294.48289948 315.93277802 294.48289948 315.9319458 296.20697021 C315.89291905 313.80865828 315.16028666 330.76187313 311.55859375 348.04296875 C311.33365234 349.12562012 311.10871094 350.20827148 310.87695312 351.32373047 C309.31324298 358.6221214 307.51525641 365.8407592 305.55859375 373.04296875 C305.29755859 374.01282715 305.03652344 374.98268555 304.76757812 375.98193359 C304.01009565 378.75858615 303.22911992 381.52699722 302.43359375 384.29296875 C302.20430176 385.10902588 301.97500977 385.92508301 301.73876953 386.76586914 C301.5117334 387.52246826 301.28469727 388.27906738 301.05078125 389.05859375 C300.8585498 389.71118164 300.66631836 390.36376953 300.46826172 391.03613281 C299.17236206 393.89504189 297.77237666 395.79548516 295.55859375 398.04296875 C292.39671326 398.6822052 292.39671326 398.6822052 288.57592773 398.70239258 C287.51723984 398.71809264 287.51723984 398.71809264 286.43716431 398.73410988 C284.05924364 398.76315488 281.68275801 398.756439 279.3046875 398.75 C277.58372781 398.76347251 275.86278374 398.77908081 274.14186096 398.79664612 C269.41822324 398.83812099 264.69499134 398.84785563 259.97119141 398.85106659 C254.97746316 398.85845566 249.98388058 398.89029855 244.99023438 398.91845703 C236.27978467 398.96368223 227.56943476 398.98783252 218.85888672 399.00341797 C207.58814876 399.02490668 196.31817126 399.09392969 185.04774952 399.17895031 C174.45127253 399.25818167 163.85479829 399.31798315 153.25811291 399.36317921 C146.75527187 399.39109999 140.25266249 399.42614944 133.74996948 399.47866821 C127.58722122 399.52738451 121.42484867 399.55157406 115.26191521 399.55711174 C112.97539212 399.56326585 110.68887453 399.57809445 108.40246773 399.60196114 C105.27176407 399.63325895 102.14253497 399.63382889 99.01171875 399.62646484 C98.08994056 399.64287427 97.16816236 399.6592837 96.2184515 399.67619038 C93.89202626 399.65314188 91.81944596 399.59001929 89.55859375 399.04296875 C87.04904496 396.2355362 86.20382317 393.55429399 85.65820312 389.8762207 C85.53330505 389.07123642 85.40840698 388.26625214 85.27972412 387.43687439 C85.1551886 386.56051834 85.03065308 385.68416229 84.90234375 384.78125 C84.75927795 383.83782242 84.61621216 382.89439484 84.46881104 381.92237854 C83.98821804 378.7348879 83.52349599 375.54528293 83.05859375 372.35546875 C82.71350792 370.04364162 82.36745057 367.73195934 82.02050781 365.42041016 C81.26184751 360.35135407 80.51006132 355.28132451 79.76367188 350.21044922 C78.63430772 342.53966094 77.48830211 334.87141376 76.33943558 327.20352554 C70.09347421 285.50428669 63.98821277 243.78421742 57.89453125 202.0625 C57.78146259 201.28847273 57.66839394 200.51444546 57.55189896 199.71696281 C57.23417092 197.5415529 56.91661054 195.36611858 56.59912109 193.19067383 C56.33245132 191.3637072 56.33245132 191.3637072 56.06039429 189.49983215 C55.5545296 186.01497116 55.05659285 182.52896246 54.55859375 179.04296875 C54.22859375 258.57296875 53.89859375 338.10296875 53.55859375 420.04296875 C130.11859375 420.04296875 206.67859375 420.04296875 285.55859375 420.04296875 C283.24859375 423.67296875 280.93859375 427.30296875 278.55859375 431.04296875 C277.71847748 432.56921875 276.87836121 434.09546875 276.01278687 435.66796875 C273.98786491 438.26928535 272.90551777 438.95764183 269.66804886 439.75390625 C265.8620973 440.07282637 262.10517534 440.09929275 258.29150391 440.04296875 C256.8324875 440.05058013 255.37348584 440.06170347 253.91452026 440.07606506 C249.96403593 440.10503725 246.01515194 440.08499578 242.06472445 440.05604935 C237.93265461 440.03414078 233.80084376 440.05744831 229.66879272 440.07592773 C221.84893652 440.10404594 214.02969404 440.09159104 206.20985544 440.06450367 C197.3053248 440.03563859 188.40105747 440.05208821 179.4965241 440.07231522 C161.18371797 440.11289979 142.8713539 440.09667235 124.55859375 440.04296875 C125.17841629 440.45388763 125.79823883 440.86480652 126.43684387 441.28817749 C127.65497017 442.09758286 127.65497017 442.09758286 128.89770508 442.92333984 C129.70315262 443.45800873 130.50860016 443.99267761 131.3384552 444.54354858 C147.66455621 455.56974561 162.37698082 469.65353108 174.55859375 485.04296875 C175.7496875 486.50863281 175.7496875 486.50863281 176.96484375 488.00390625 C186.9541615 500.55377696 196.77340494 514.99716054 202.55859375 530.04296875 C201.55859375 533.04296875 201.55859375 533.04296875 199.93212891 534.02612305 C199.24425293 534.30367432 198.55637695 534.58122559 197.84765625 534.8671875 C197.09742188 535.17333984 196.3471875 535.47949219 195.57421875 535.79492188 C194.39085937 536.25801758 194.39085937 536.25801758 193.18359375 536.73046875 C192.40242188 537.05080078 191.62125 537.37113281 190.81640625 537.70117188 C184.98438333 540.04296875 184.98438333 540.04296875 181.55859375 540.04296875 C181.16704102 539.27388184 181.16704102 539.27388184 180.76757812 538.48925781 C167.53749073 512.6199188 150.86619157 488.84692327 127.55859375 471.04296875 C126.60082031 470.25792969 125.64304687 469.47289062 124.65625 468.6640625 C112.89805078 459.18929667 99.79717027 451.89112013 86.18359375 445.41796875 C85.4884668 445.08716309 84.79333984 444.75635742 84.07714844 444.41552734 C77.23985336 441.26672865 71.14998259 440.81766808 63.74609375 440.48046875 C60.71421875 440.33609375 57.68234375 440.19171875 54.55859375 440.04296875 C54.88859375 449.94296875 55.21859375 459.84296875 55.55859375 470.04296875 C57.68296875 470.70296875 59.80734375 471.36296875 61.99609375 472.04296875 C96.95111522 483.46280069 124.89150956 508.20499647 141.90600586 540.58081055 C149.55859375 555.69835367 149.55859375 555.69835367 149.55859375 561.04296875 C146.26827145 562.04742979 142.97612553 563.04577631 139.68359375 564.04296875 C138.74644531 564.32914063 137.80929687 564.6153125 136.84375 564.91015625 C135.94785156 565.18085937 135.05195312 565.4515625 134.12890625 565.73046875 C132.88778076 566.10751953 132.88778076 566.10751953 131.62158203 566.4921875 C129.55859375 567.04296875 129.55859375 567.04296875 127.55859375 567.04296875 C126.86636719 565.24666016 126.86636719 565.24666016 126.16015625 563.4140625 C120.33553322 548.71367894 113.20905383 536.29439551 102.17578125 524.8984375 C100.55859375 523.04296875 100.55859375 523.04296875 100.55859375 521.04296875 C99.97980469 520.78773438 99.40101563 520.5325 98.8046875 520.26953125 C96.33166909 518.91904815 94.64817729 517.37112794 92.62109375 515.41796875 C81.76015319 505.58970778 68.15739509 499.14251925 54.55859375 494.04296875 C54.55859375 503.94296875 54.55859375 513.84296875 54.55859375 524.04296875 C56.20859375 524.70296875 57.85859375 525.36296875 59.55859375 526.04296875 C75.05583388 536.35760818 83.22672169 551.72485209 87.9296875 569.27734375 C88.55859375 573.04296875 88.55859375 573.04296875 88.55859375 583.04296875 C44.99859375 583.04296875 1.43859375 583.04296875 -43.44140625 583.04296875 C-43.44140625 563.9192074 -36.89792105 546.89142087 -23.44140625 533.04296875 C-15.71446898 526.17950012 -15.71446898 526.17950012 -11.44140625 524.04296875 C-11.11140625 514.47296875 -10.78140625 504.90296875 -10.44140625 495.04296875 C-41.22859016 506.23830835 -63.73067534 525.82054635 -77.57519531 555.47119141 C-79.44847001 559.59881939 -81.10608958 563.70318959 -82.44140625 568.04296875 C-85.17176326 567.42284356 -87.90061389 566.79705988 -90.62890625 566.16796875 C-91.39783203 565.99394531 -92.16675781 565.81992187 -92.95898438 565.640625 C-96.94201879 564.71751831 -100.68929008 563.71224689 -104.44140625 562.04296875 C-102.43743069 552.19008892 -98.14390105 543.82215962 -93.44140625 535.04296875 C-92.88324219 533.975625 -92.32507813 532.90828125 -91.75 531.80859375 C-87.29499761 523.69297494 -81.67467618 516.82410819 -75.44140625 510.04296875 C-74.68682129 509.22046631 -74.68682129 509.22046631 -73.91699219 508.38134766 C-57.61199113 490.84548897 -37.42797299 477.99620068 -14.44140625 471.04296875 C-13.12140625 471.04296875 -11.80140625 471.04296875 -10.44140625 471.04296875 C-10.44140625 460.81296875 -10.44140625 450.58296875 -10.44140625 440.04296875 C-22.33301223 440.29962212 -31.6703137 440.68798744 -42.44140625 446.04296875 C-43.16859863 446.40100586 -43.89579102 446.75904297 -44.64501953 447.12792969 C-69.86655568 459.64867596 -93.21907987 476.54080508 -110.44140625 499.04296875 C-111.2509375 500.0484375 -112.06046875 501.05390625 -112.89453125 502.08984375 C-122.76244141 514.41808704 -130.17001067 528.07475654 -137.44140625 542.04296875 C-144.62357058 539.76861671 -151.51722645 537.00712694 -158.44140625 534.04296875 C-150.69911314 512.39510971 -137.01126546 493.09839209 -121.515625 476.3046875 C-119.64019039 474.25972208 -117.85108092 472.166774 -116.06640625 470.04296875 C-106.21005812 458.82017236 -93.84323877 449.3108571 -81.44140625 441.04296875 C-82.19678429 441.04795474 -82.95216232 441.05294073 -83.7304306 441.05807781 C-102.12617526 441.17571157 -120.52119025 441.23245174 -138.91732025 441.22175121 C-147.81375017 441.21803873 -156.70925531 441.23479469 -165.60546875 441.30004883 C-173.36120512 441.35688524 -181.11590994 441.37499898 -188.87182093 441.34697515 C-192.97751608 441.33348323 -197.0811385 441.33913531 -201.18656921 441.3911953 C-205.05522731 441.43964013 -208.92043715 441.43610507 -212.78913116 441.39355469 C-214.20486285 441.3869883 -215.62082909 441.39904138 -217.03620148 441.43160439 C-227.65367575 441.66024703 -227.65367575 441.66024703 -231.93647766 437.7857914 C-234.03611237 434.95740145 -235.74324642 432.12782103 -237.44140625 429.04296875 C-239.09140625 426.40296875 -240.74140625 423.76296875 -242.44140625 421.04296875 C-165.88140625 421.04296875 -89.32140625 421.04296875 -10.44140625 421.04296875 C-10.77140625 410.48296875 -11.10140625 399.92296875 -11.44140625 389.04296875 C-11.65390718 372.62672434 -11.65390718 372.62672434 -11.68162537 367.0816803 C-11.68831175 365.84803301 -11.69499813 364.61438572 -11.70188713 363.34335518 C-11.70874094 362.07375891 -11.71559475 360.80416264 -11.72265625 359.49609375 C-11.7400528 356.76374209 -11.75875483 354.03139983 -11.77748108 351.29905701 C-11.8162413 345.56953127 -11.85263882 339.83999544 -11.88723755 334.11044312 C-11.97267487 320.0040093 -12.0717387 305.89766651 -12.1718266 291.7913301 C-12.1874839 289.58039841 -12.20300814 287.36946582 -12.21851921 285.1585331 C-12.39561566 260.01469544 -12.65004739 234.87247567 -13.00390625 209.73046875 C-13.01507477 208.93339005 -13.02624329 208.13631134 -13.03775024 207.31507874 C-13.16545676 198.22426905 -13.29874182 189.13355752 -13.44140625 180.04296875 C-17.44184613 207.15593994 -21.35755408 234.28096133 -25.19140625 261.41796875 C-25.2945451 262.14759071 -25.39768394 262.87721268 -25.50394821 263.6289444 C-28.2172559 282.83138746 -30.85877473 302.04254151 -33.421875 321.265625 C-33.54588055 322.19484772 -33.66988609 323.12407043 -33.79764938 324.08145142 C-35.01629387 333.21481262 -36.23128133 342.3486272 -37.43199444 351.48436451 C-37.87786989 354.8713194 -38.32709813 358.25782474 -38.7769413 361.64425468 C-38.98337071 363.20468774 -39.1882696 364.76532427 -39.39140892 366.32618904 C-43.13496098 395.08330085 -43.13496098 395.08330085 -46.44140625 400.04296875 C-48.35818291 400.42772961 -48.35818291 400.42772961 -50.7482605 400.44169617 C-51.65596915 400.45423557 -52.56367781 400.46677498 -53.49889278 400.47969437 C-54.5006986 400.47825802 -55.50250441 400.47682167 -56.53466797 400.4753418 C-57.59153337 400.48552212 -58.64839876 400.49570244 -59.73729038 400.50619125 C-63.28194313 400.53663085 -66.82632663 400.54563735 -70.37109375 400.5546875 C-72.876967 400.57175874 -75.38283188 400.59009941 -77.88868713 400.6096344 C-83.93714074 400.65320842 -89.9855118 400.68283275 -96.03406805 400.70541054 C-100.90516417 400.72386498 -105.77619929 400.74808567 -110.64724731 400.77648926 C-111.33578912 400.78049779 -112.02433093 400.78450632 -112.73373765 400.78863633 C-114.12659819 400.79676738 -115.51945866 400.80491021 -116.91231906 400.81306481 C-129.47168816 400.88589641 -142.03107732 400.94123458 -154.59056938 400.98756433 C-164.95761792 401.02599929 -175.32448288 401.08072518 -185.69139481 401.14624882 C-194.61708288 401.20201669 -203.5427584 401.24179173 -212.46856689 401.27212524 C-216.07030782 401.28467947 -219.67193706 401.3034139 -223.27362061 401.32723999 C-227.44254362 401.35417592 -231.61124857 401.36669455 -235.78025627 401.36723137 C-237.2806468 401.36977057 -238.78103889 401.37738953 -240.28137398 401.39053535 C-242.29615692 401.40738781 -244.31107954 401.40400698 -246.32592773 401.39941406 C-247.44353989 401.40305969 -248.56115204 401.40670532 -249.71263123 401.41046143 C-252.44140625 401.04296875 -252.44140625 401.04296875 -254.25233459 399.65960693 C-272.81439754 374.42299517 -274.66538407 324.53873632 -274.69140625 294.48046875 C-274.69208099 293.76875519 -274.69275574 293.05704163 -274.69345093 292.32376099 C-274.6484884 262.0782695 -269.48740339 232.85884672 -260.44140625 204.04296875 C-260.19197266 203.24004395 -259.94253906 202.43711914 -259.68554688 201.60986328 C-244.03415007 152.03034216 -212.33978989 104.59947968 -172.44140625 71.04296875 C-171.89871094 70.58647949 -171.35601562 70.12999023 -170.796875 69.65966797 C-155.66799563 56.99692552 -139.9860663 45.87291025 -122.71875 36.30712891 C-120.6064581 35.13458952 -118.50807167 33.94018029 -116.41015625 32.7421875 C-87.99650695 16.81002253 -56.39371744 7.54792747 -24.44140625 2.04296875 C-23.69971191 1.91164551 -22.95801758 1.78032227 -22.19384766 1.64501953 C-14.76354254 0.36070255 -7.51927023 -0.05418816 0 0 Z " fill="#FEFCFD" transform="translate(577.44140625,292.95703125)"/>
<path d="M0 0 C-3.88313215 20.35882151 -7.87136303 40.69655862 -11.88354492 61.03027344 C-12.76032967 65.47451103 -13.63439257 69.91927938 -14.50784969 74.36417198 C-15.20049355 77.88612535 -15.89525568 81.40765874 -16.59051704 84.92909622 C-16.91289285 86.56370611 -17.2345434 88.19845927 -17.5553112 89.83338547 C-19.51046105 99.79420871 -21.57862478 109.72542894 -23.7265625 119.64648438 C-27.58214387 137.50181885 -31.13848561 155.41677983 -34.71315312 173.33004618 C-35.68909891 178.21873377 -36.66714039 183.10700217 -37.6448822 187.99533081 C-39.28418055 196.19275152 -40.92200747 204.39046507 -42.55883789 212.58837891 C-44.43620518 221.99094357 -46.31558356 231.39310444 -48.19611651 240.79503644 C-50.22096196 250.91858199 -52.24433526 261.04242139 -54.26728892 271.16634512 C-54.84055818 274.03479611 -55.41409125 276.90319424 -55.98768806 279.77157974 C-59.73136446 298.49495325 -63.46308938 317.21906561 -67.03416443 335.97628784 C-70.5665017 354.47932467 -70.5665017 354.47932467 -74 357 C-77.0709486 357.36914349 -77.0709486 357.36914349 -80.92851257 357.36076355 C-81.99203932 357.36460846 -81.99203932 357.36460846 -83.07705146 357.36853105 C-85.45874236 357.37348226 -87.83980281 357.35695458 -90.22143555 357.34057617 C-91.92628972 357.33973019 -93.631145 357.34020448 -95.33599854 357.34190369 C-99.97006591 357.34276618 -104.60390142 357.32509939 -109.2379148 357.30418181 C-114.07858598 357.28545728 -118.91926218 357.28366791 -123.75996399 357.28010559 C-132.92910941 357.27077269 -142.09814782 357.24614208 -151.26724607 357.21605712 C-161.7048287 357.18255182 -172.14241638 357.16603685 -182.58003938 357.15097082 C-204.05341937 357.1195936 -225.52670295 357.06680893 -247 357 C-247.95836417 353.55612363 -248.90944198 350.1102731 -249.859375 346.6640625 C-250.260354 345.22365601 -250.260354 345.22365601 -250.66943359 343.75415039 C-257.01205734 320.68212914 -259.42974192 297.44490741 -259.375 273.5625 C-259.37445618 272.6567926 -259.37391235 271.75108521 -259.37335205 270.81793213 C-259.17293112 197.62581329 -227.33240576 130.10250566 -177 78 C-175.04417956 76.16326088 -173.05319794 74.40934173 -170.99609375 72.6875 C-168.76134444 70.79824031 -166.64090806 68.8073561 -164.5 66.8125 C-121.53462625 28.12392456 -58.31474145 -0.44424415 0 0 Z " fill="#A41D23" transform="translate(582,312)"/>
<path d="M0 0 C72.86767429 2.23178175 139.69920494 36.57290318 189.63769531 88.54003906 C193.33174373 92.49889382 196.66085764 96.74288036 200 101 C200.88157781 102.09214363 201.76444681 103.18324596 202.6484375 104.2734375 C235.54658477 145.09451658 254.36881776 194.25418829 261 246 C261.1038501 246.72276123 261.2077002 247.44552246 261.31469727 248.19018555 C262.29684755 255.61252268 262.19989034 263.08921771 262.1875 270.5625 C262.18656342 271.29131378 262.18562683 272.02012756 262.18466187 272.77102661 C262.11491545 297.9343657 259.07185128 321.97581904 252.91162109 346.40039062 C252.7272197 347.13461243 252.5428183 347.86883423 252.35282898 348.62530518 C251.90269931 350.41707464 251.45146438 352.20856637 251 354 C215.78459545 354.8475811 180.57699151 355.21531076 145.35260808 355.23882818 C138.29254474 355.2436273 131.23266555 355.26157532 124.17265791 355.2898953 C118.60646018 355.31143162 113.0403153 355.32159261 107.47407633 355.32293582 C104.1882738 355.32397833 100.90269291 355.33126077 97.61692619 355.34775543 C94.01131038 355.3646622 90.40617555 355.3629812 86.80053711 355.35644531 C85.72835937 355.3656601 84.65618164 355.37487488 83.55151367 355.3843689 C82.09291176 355.37601517 82.09291176 355.37601517 80.60484314 355.36749268 C79.75850783 355.36895924 78.91217253 355.3704258 78.0401907 355.3719368 C77.0302963 355.18782808 77.0302963 355.18782808 76 355 C74.19043364 352.28565047 73.6473988 351.10853239 73.04199219 348.06469727 C72.881091 347.2733136 72.72018982 346.48192993 72.55441284 345.66656494 C72.30318161 344.37948639 72.30318161 344.37948639 72.046875 343.06640625 C71.86625519 342.17008484 71.68563538 341.27376343 71.49954224 340.35028076 C71.11218427 338.4245796 70.72781719 336.49827489 70.34613037 334.57144165 C69.54511735 330.52836388 68.72975118 326.48822663 67.91488647 322.44792175 C67.50827192 320.43147349 67.10236709 318.41488198 66.69717407 316.39814758 C65.14697015 308.69011157 63.53854055 300.99696554 61.875 293.3125 C61.63982666 292.22412842 61.40465332 291.13575684 61.16235352 290.0144043 C60.68707794 287.81538019 60.21157352 285.61640552 59.73583984 283.41748047 C58.51696979 277.75665003 57.31992894 272.09119551 56.12142944 266.42602539 C53.48033983 253.94256309 50.81566608 241.46430703 48.13711548 228.98883057 C44.89504207 213.88854093 41.68228141 198.78260361 38.51052856 183.66738892 C35.87356659 171.10439109 33.19626647 158.55039635 30.5 146 C27.63685397 132.67282408 24.79956181 119.34067829 22 106 C19.21743979 92.74351703 16.40315341 79.49415713 13.5625 66.25 C13.28589035 64.95943192 13.28589035 64.95943192 13.00369263 63.64279175 C11.03593702 54.4622634 9.06251455 45.28299376 7.07698059 36.10629272 C6.23217151 32.19998923 5.38962653 28.29319907 4.54733276 24.38635254 C4.14314914 22.51476574 3.7378281 20.64342419 3.33132935 18.77233887 C2.76891824 16.1834466 2.21023292 13.59377611 1.65234375 11.00390625 C1.48407074 10.23411942 1.31579773 9.46433258 1.14242554 8.67121887 C0.50956573 5.71880565 0 3.02938656 0 0 Z " fill="#A41D23" transform="translate(612,312)"/>
<path d="M0 0 C1.31957703 -0.00960754 2.63915405 -0.01921509 3.99871826 -0.02911377 C5.42655257 -0.03396731 6.85438893 -0.03824477 8.28222656 -0.04199219 C9.013339 -0.04481956 9.74445145 -0.04764694 10.49771881 -0.05056 C14.37755181 -0.06551151 18.25734811 -0.07476275 22.13720703 -0.07910156 C25.30627094 -0.08346344 28.47505911 -0.09727085 31.64404297 -0.12011719 C91.80354857 -0.54519943 91.80354857 -0.54519943 111.48535156 17.91113281 C115.50387889 22.24130104 118.47575169 26.92061396 121.17285156 32.16113281 C121.615 33.01964844 122.05714844 33.87816406 122.51269531 34.76269531 C129.7452365 50.3709149 130.78114452 67.47083998 130.63378906 84.39941406 C130.63139348 86.26303478 130.63050166 88.12665796 130.63101196 89.99028015 C130.62791883 93.85671571 130.61162197 97.72277129 130.58447266 101.58911133 C130.55037845 106.50163756 130.54284985 111.41375186 130.54436302 116.32638264 C130.54381502 120.16065779 130.5327814 123.99484607 130.51836014 127.82909203 C130.51207789 129.63926732 130.50807381 131.44945226 130.50657272 133.25963783 C130.48227204 147.2291011 130.15432404 161.16366056 125.42285156 174.47363281 C125.15827148 175.23289062 124.89369141 175.99214844 124.62109375 176.77441406 C119.90016025 189.85638399 112.25689855 200.17979568 99.86035156 206.97363281 C83.73773493 214.45976545 66.10246594 216.31971459 48.55175781 216.32910156 C47.12418079 216.3323241 45.69660408 216.33568888 44.26902771 216.33918762 C41.28098793 216.34515407 38.29297695 216.34703034 35.30493164 216.34643555 C32.27459704 216.34635462 29.24441469 216.35324494 26.21411133 216.36694336 C-33.88558547 216.63434732 -33.88558547 216.63434732 -53.76464844 197.84863281 C-74.41195239 175.38949963 -73.19364863 141.27125221 -73.14282227 112.75732422 C-73.13820317 109.95377505 -73.14508201 107.15066102 -73.16333008 104.34716797 C-73.5769895 40.10638298 -73.5769895 40.10638298 -53.51464844 18.34863281 C-49.4188343 14.51854263 -44.75485422 11.78975347 -39.82714844 9.16113281 C-38.81587891 8.60619141 -38.81587891 8.60619141 -37.78417969 8.04003906 C-26.61498779 2.48784889 -12.34193429 0.07309299 0 0 Z " fill="#FEFDFD" transform="translate(190.8271484375,927.8388671875)"/>
<path d="M0 0 C100.98 0 201.96 0 306 0 C306 8.91 306 17.82 306 27 C301.05 27 296.1 27 291 27 C291 68.25 291 109.5 291 152 C279.78 152 268.56 152 257 152 C257 127.58 257 103.16 257 78 C249.41 78 241.82 78 234 78 C234.99 81.3 235.98 84.6 237 88 C237.29389311 90.89656812 237.48079212 93.49760825 237.4375 96.375 C237.42920166 97.10468994 237.42090332 97.83437988 237.41235352 98.58618164 C237.0044696 111.7995884 231.26936203 122.20430588 221.8125 131.25 C208.92003325 142.11839347 194.26184745 144.37627324 178 143 C165.46761042 140.67454549 153.68040572 133.07074194 146.34765625 122.65234375 C140.99402303 114.1833934 138.4228449 106.27918682 138.5 96.25 C138.50572021 95.37819092 138.51144043 94.50638184 138.51733398 93.6081543 C138.8350581 82.02566605 142.8865559 72.32524083 151 64 C160.74767821 55.01999608 172.03636413 50.64083774 185.25195312 50.77294922 C186.03340698 50.77265717 186.81486084 50.77236511 187.61999512 50.77206421 C190.17386422 50.77344495 192.72743259 50.7889462 195.28125 50.8046875 C197.06343425 50.80842211 198.84562057 50.81126696 200.62780762 50.81326294 C205.29668949 50.82086415 209.96544505 50.84048215 214.63427734 50.8626709 C219.40720919 50.88320532 224.18016163 50.89228084 228.953125 50.90234375 C238.30214749 50.92373165 247.65104343 50.95888483 257 51 C257 43.08 257 35.16 257 27 C212.12 27.33 167.24 27.66 121 28 C122.98 31.3 124.96 34.6 127 38 C131.91609955 48.47905429 132.81778891 60.08786784 129.9375 71.375 C124.5818187 85.97914948 114.06300218 94.96114328 100.4921875 101.58984375 C92.95537258 104.63323322 86.42154487 105.31857851 78.375 105.25 C77.00214844 105.26160156 77.00214844 105.26160156 75.6015625 105.2734375 C70.6686668 105.25918058 66.6240317 104.93564118 62 103 C62.59683631 96.00608717 64.45227581 89.67750149 66.5625 83 C66.89185547 81.93910156 67.22121094 80.87820312 67.56054688 79.78515625 C68.36771779 77.18817156 69.18098869 74.59326993 70 72 C70.60593994 72.16081055 71.21187988 72.32162109 71.83618164 72.48730469 C77.19704597 73.75750835 83.10025442 73.93048763 88.0625 71.5 C88.701875 71.005 89.34125 70.51 90 70 C90.66 70 91.32 70 92 70 C92.68346682 68.34015202 93.34588315 66.67163195 94 65 C94.37125 64.13375 94.7425 63.2675 95.125 62.375 C97.68794543 52.48935335 95.6753594 43.64667269 90.796875 34.82421875 C88.29474521 30.99976087 86.32428369 29.28466191 82 28 C79.32793935 27.76903096 76.7480817 27.62896057 74.07421875 27.5859375 C73.32662796 27.56657135 72.57903717 27.5472052 71.80879211 27.5272522 C69.43514194 27.46776082 67.06144246 27.42119408 64.6875 27.375 C63.07224518 27.33679211 61.45701013 27.29773875 59.84179688 27.2578125 C55.8946929 27.1620847 51.94749361 27.07794233 48 27 C48.06127864 38.09227517 48.13843374 49.18431636 48.23571491 60.27633762 C48.28039346 65.42712901 48.31965523 70.57784176 48.34643555 75.72875977 C48.37249347 80.70207238 48.41291374 85.67508199 48.46318626 90.64820671 C48.4798381 92.5431128 48.49136284 94.43807129 48.49761391 96.33304024 C48.50727328 98.99261168 48.53535435 101.65141083 48.56762695 104.31079102 C48.56619186 105.0897876 48.56475677 105.86878418 48.5632782 106.67138672 C48.66250249 112.47409482 49.58778659 117.66559993 53.9375 121.875 C58.17375807 124.18568622 62.19669393 124.14605826 66.97167969 124.20532227 C68.01131111 124.22017166 68.01131111 124.22017166 69.07194519 124.23532104 C71.35522078 124.26682419 73.63851714 124.29164902 75.921875 124.31640625 C77.508001 124.33698545 79.09412164 124.35798218 80.68023682 124.37937927 C84.84930061 124.43450021 89.01841308 124.48395337 93.18756104 124.53222656 C97.44409503 124.58251456 101.70055858 124.63816249 105.95703125 124.69335938 C114.30462948 124.80081889 122.65228775 124.90179534 131 125 C131 133.91 131 142.82 131 152 C119.45544755 152.09061385 107.91113394 152.1638961 96.36630535 152.20724869 C91.00472923 152.22806287 85.64341047 152.25626728 80.28198242 152.30175781 C75.10130622 152.34543622 69.92087652 152.36918343 64.74003029 152.37950897 C62.77020199 152.38686101 60.80038614 152.40121725 58.83066368 152.42292023 C45.08148183 152.56829429 33.36131903 152.37599563 22.9375 142.25 C11.76222182 129.2722576 12.57141325 111.25182377 12.70703125 95.1640625 C12.7126395 93.18867315 12.71690377 91.21327957 12.71989441 89.23788452 C12.73124653 84.08569436 12.76062868 78.93376549 12.79400635 73.78167725 C12.82491709 68.5055291 12.83844425 63.22933796 12.85351562 57.953125 C12.88550932 47.63530304 12.93658641 37.31767341 13 27 C8.71 27 4.42 27 0 27 C0 18.09 0 9.18 0 0 Z " fill="#FEFDFD" transform="translate(315,91)"/>
<path d="M0 0 C5.55576725 4.67725647 9.29139767 9.33013738 12.29296875 15.93359375 C12.62296875 16.59359375 12.95296875 17.25359375 13.29296875 17.93359375 C14.06407649 26.63067771 13.04605218 33.07557531 9.29296875 40.93359375 C12.59296875 40.93359375 15.89296875 40.93359375 19.29296875 40.93359375 C19.29296875 49.84359375 19.29296875 58.75359375 19.29296875 67.93359375 C14.67296875 67.93359375 10.05296875 67.93359375 5.29296875 67.93359375 C5.29296875 109.18359375 5.29296875 150.43359375 5.29296875 192.93359375 C-5.92703125 192.93359375 -17.14703125 192.93359375 -28.70703125 192.93359375 C-28.70703125 151.68359375 -28.70703125 110.43359375 -28.70703125 67.93359375 C-35.30703125 67.93359375 -41.90703125 67.93359375 -48.70703125 67.93359375 C-48.70703125 109.18359375 -48.70703125 150.43359375 -48.70703125 192.93359375 C-59.92703125 192.93359375 -71.14703125 192.93359375 -82.70703125 192.93359375 C-82.70703125 172.14359375 -82.70703125 151.35359375 -82.70703125 129.93359375 C-88.48203125 129.95421875 -94.25703125 129.97484375 -100.20703125 129.99609375 C-102.01365234 129.98457275 -103.82027344 129.97305176 -105.68164062 129.96118164 C-115.33063025 129.81283565 -115.33063025 129.81283565 -123.5234375 134.31640625 C-124.59495705 135.51297204 -125.65770866 136.71751565 -126.70703125 137.93359375 C-136.10496357 143.52120793 -146.803677 146.20142564 -157.70703125 144.93359375 C-162.21776478 143.66692017 -166.51648312 142.02886782 -170.70703125 139.93359375 C-170.59279832 142.99683994 -170.46605273 146.05870289 -170.33203125 149.12109375 C-170.30109375 149.98541016 -170.27015625 150.84972656 -170.23828125 151.74023438 C-169.96688625 158.06849687 -169.96688625 158.06849687 -167.70703125 163.93359375 C-165.04043068 165.26689404 -162.95814382 165.09518834 -159.97216797 165.13891602 C-158.77107391 165.15886124 -157.56997986 165.17880646 -156.33248901 165.19935608 C-155.03038483 165.21606857 -153.72828064 165.23278107 -152.38671875 165.25 C-151.04435587 165.27057 -149.70199946 165.29156648 -148.35964966 165.31297302 C-144.82514687 165.36818906 -141.29058568 165.41760033 -137.75598145 165.46582031 C-134.14976813 165.51603879 -130.54363865 165.57167012 -126.9375 165.62695312 C-119.86074114 165.73504195 -112.78393653 165.83406815 -105.70703125 165.93359375 C-105.70703125 174.84359375 -105.70703125 183.75359375 -105.70703125 192.93359375 C-115.44347061 193.04690546 -125.17946649 193.13848784 -134.91641808 193.19265461 C-139.43850734 193.2186622 -143.96011908 193.25389673 -148.48193359 193.31079102 C-152.85214504 193.36542882 -157.22189944 193.39508064 -161.5924263 193.40797997 C-163.25330416 193.41716324 -164.9141592 193.43509539 -166.57484055 193.46224403 C-176.71447964 193.6212961 -185.68125494 193.48092094 -193.56478882 186.2233429 C-204.42182054 174.75802303 -205.14426693 160.02113716 -205 145.11328125 C-204.9943948 143.40121841 -204.99012907 141.6891507 -204.98713684 139.9770813 C-204.97576074 135.5021401 -204.94635711 131.02749766 -204.9130249 126.55267334 C-204.88216678 121.97395874 -204.86859808 117.39519519 -204.85351562 112.81640625 C-204.82147944 103.85533852 -204.77037217 94.89449112 -204.70703125 85.93359375 C-200.02563871 85.90894087 -195.34428366 85.89075636 -190.6628418 85.87866211 C-189.06908511 85.87362218 -187.47533306 85.86679025 -185.8815918 85.8581543 C-183.59552872 85.84607376 -181.30952658 85.8403622 -179.0234375 85.8359375 C-178.30676407 85.83077621 -177.59009064 85.82561493 -176.85169983 85.82029724 C-175.13639453 85.82010112 -173.42121859 85.87167368 -171.70703125 85.93359375 C-170.02402456 87.61660044 -170.47894048 89.75368102 -170.390625 92.0625 C-170.34873047 93.09697266 -170.30683594 94.13144531 -170.26367188 95.19726562 C-170.22435547 96.28587891 -170.18503906 97.37449219 -170.14453125 98.49609375 C-170.10134766 99.58857422 -170.05816406 100.68105469 -170.01367188 101.80664062 C-169.90721057 104.51548939 -169.80519609 107.22443367 -169.70703125 109.93359375 C-163.81390232 113.11231726 -159.48890744 115.08223584 -152.70703125 113.93359375 C-147.62908864 112.07168146 -145.4550175 110.11250817 -142.76953125 105.43359375 C-139.39254889 97.82979242 -139.55167595 90.3181906 -142.39453125 82.55859375 C-145.19181649 76.4222955 -148.59263961 72.05948099 -154.70703125 68.93359375 C-157.30366275 68.46962055 -157.30366275 68.46962055 -160.0480957 68.5012207 C-161.60914787 68.47152946 -161.60914787 68.47152946 -163.20173645 68.4412384 C-164.31336655 68.43484848 -165.42499664 68.42845856 -166.5703125 68.421875 C-168.2909919 68.3949482 -168.2909919 68.3949482 -170.0464325 68.36747742 C-173.70409489 68.31336975 -177.36162672 68.27947624 -181.01953125 68.24609375 C-183.50197129 68.21292119 -185.98439411 68.1784316 -188.46679688 68.14257812 C-194.54689387 68.05516784 -200.62639628 67.9951 -206.70703125 67.93359375 C-206.70703125 59.02359375 -206.70703125 50.11359375 -206.70703125 40.93359375 C-171.39703125 40.60359375 -136.08703125 40.27359375 -99.70703125 39.93359375 C-101.02703125 36.30359375 -102.34703125 32.67359375 -103.70703125 28.93359375 C-105.00509467 19.71734346 -101.30589661 12.79320812 -95.8671875 5.44921875 C-73.15700108 -19.83275462 -25.8852221 -19.75942639 0 0 Z " fill="#FEFDFD" transform="translate(1099.70703125,50.06640625)"/>
<path d="M0 0 C1.45096365 -0.00322298 2.901927 -0.00658779 4.35289001 -0.01008606 C7.38622793 -0.01604667 10.4195375 -0.01792929 13.45288086 -0.01733398 C17.29279945 -0.0172329 21.13253093 -0.03084355 24.97240543 -0.04810619 C27.96946505 -0.05936552 30.96648153 -0.06124893 33.9635601 -0.06072426 C35.3765877 -0.06188514 36.78961715 -0.06619688 38.20262337 -0.07405663 C60.8602499 -0.18823407 85.87212461 2.77946332 103.02734375 19.16796875 C116.47285506 34.99417422 121.02734375 56.80439293 121.02734375 77.16796875 C105.51734375 77.16796875 90.00734375 77.16796875 74.02734375 77.16796875 C73.69734375 73.20796875 73.36734375 69.24796875 73.02734375 65.16796875 C70.76259008 58.37370775 68.20848059 53.91712515 62.02734375 50.16796875 C53.62819341 46.84777433 45.22257637 46.7282471 36.3046875 46.76953125 C34.90946807 46.76750382 33.51424967 46.76458686 32.11903381 46.76083374 C29.21361063 46.7564432 26.30846657 46.76273545 23.40307617 46.77685547 C19.70596359 46.79396183 16.00950395 46.78407664 12.31241512 46.76613808 C9.43737492 46.75522455 6.56248598 46.75878066 3.68744087 46.76652145 C1.67027988 46.76945406 -0.34688735 46.76045284 -2.36402893 46.75112915 C-11.811383 46.82288324 -21.66322612 47.53848561 -28.97265625 54.16796875 C-33.44121888 61.44152586 -35.12079149 67.43985355 -35.13378906 75.91479492 C-35.13875397 76.69096161 -35.14371887 77.4671283 -35.14883423 78.26681519 C-35.16342329 80.83153171 -35.17025347 83.39618632 -35.17578125 85.9609375 C-35.18153668 87.74969992 -35.18729437 89.53846233 -35.1930542 91.32722473 C-35.20355584 95.0789112 -35.20940355 98.8305763 -35.21289062 102.58227539 C-35.21836455 107.37256508 -35.24237248 112.16256898 -35.27086258 116.95276928 C-35.28955709 120.6495494 -35.29469824 124.34626172 -35.2962265 128.0430851 C-35.29923969 129.80800242 -35.30722283 131.57291892 -35.32041168 133.33778954 C-35.52346985 148.0901762 -35.52346985 148.0901762 -29.78515625 161.48046875 C-23.94181686 167.06410417 -17.47645953 169.27853288 -9.47265625 169.3449707 C-8.81689102 169.3515419 -8.16112579 169.3581131 -7.48548889 169.36488342 C-5.3145434 169.3845938 -3.1436673 169.39627904 -0.97265625 169.40625 C0.14449265 169.41236329 0.14449265 169.41236329 1.28421021 169.41860008 C5.23260214 169.43945949 9.18095943 169.45375706 13.12939453 169.46313477 C17.18314253 169.47414901 21.23633397 169.50849048 25.28988647 169.54830647 C28.42658412 169.57462661 31.56315285 169.58284053 34.69995117 169.58641624 C36.19250206 169.59124915 37.6850485 169.60276758 39.17749023 169.62145424 C48.53136837 169.73121452 58.34875411 169.75808247 65.98730469 163.58369446 C71.99718708 157.57113249 72.877086 149.219773 74.02734375 141.16796875 C58.84734375 141.16796875 43.66734375 141.16796875 28.02734375 141.16796875 C28.02734375 125.65796875 28.02734375 110.14796875 28.02734375 94.16796875 C58.71734375 94.16796875 89.40734375 94.16796875 121.02734375 94.16796875 C121.06859375 101.51046875 121.10984375 108.85296875 121.15234375 116.41796875 C121.17055176 118.68961914 121.18875977 120.96126953 121.20751953 123.30175781 C121.28547578 139.70392854 121.17869863 156.48938501 116.27734375 172.29296875 C115.88264893 173.6082959 115.88264893 173.6082959 115.47998047 174.95019531 C113.49144109 181.29599281 111.15213997 186.89183377 107.02734375 192.16796875 C106.455 192.94011719 105.88265625 193.71226562 105.29296875 194.5078125 C92.91776299 209.87454527 72.60941544 213.80568688 54.02734375 216.16796875 C51.71181899 216.26404273 49.39413816 216.31565426 47.07666016 216.32910156 C46.42019501 216.33406647 45.76372986 216.33903137 45.08737183 216.34414673 C42.93453887 216.35864064 40.78177982 216.3655525 38.62890625 216.37109375 C37.51194429 216.37533482 37.51194429 216.37533482 36.37241745 216.37966156 C32.42356774 216.39461012 28.47475408 216.40386417 24.52587891 216.40820312 C20.49759945 216.41364974 16.4696645 216.43760869 12.44149208 216.46617508 C9.30112838 216.48504329 6.16084323 216.49001992 3.0204277 216.491539 C1.53843703 216.49451718 0.05644604 216.50237598 -1.42548752 216.51572418 C-22.45033572 216.69142717 -46.10918661 213.27409717 -62.46875 198.98828125 C-80.25676065 180.69032763 -82.30645986 154.2118426 -82.23828125 130.046875 C-82.23963333 128.33161871 -82.24157835 126.61636279 -82.24407959 124.90110779 C-82.24700613 121.32848414 -82.24281417 117.7559614 -82.23339844 114.18334961 C-82.22201417 109.64732847 -82.22857278 105.11154441 -82.24054337 100.57553196 C-82.24783672 97.03979264 -82.24543995 93.50410775 -82.24028778 89.96836662 C-82.23897139 88.29773873 -82.24052677 86.62710558 -82.24524689 84.95648384 C-82.29742594 61.3059154 -79.72129089 36.57748567 -63.23828125 18.23828125 C-46.7373724 2.37202274 -21.64105231 0.0114091 0 0 Z " fill="#FEFDFD" transform="translate(713.97265625,927.83203125)"/>
<path d="M0 0 C7.9022819 6.22157269 13.78291414 13.00382838 15.53515625 23.22265625 C15.84849711 29.66130563 13.83376367 34.89930168 11.09375 40.6484375 C14.06375 40.9784375 17.03375 41.3084375 20.09375 41.6484375 C20.09375 50.5584375 20.09375 59.4684375 20.09375 68.6484375 C14.15375 68.6484375 8.21375 68.6484375 2.09375 68.6484375 C2.09375 109.8984375 2.09375 151.1484375 2.09375 193.6484375 C-9.12625 193.6484375 -20.34625 193.6484375 -31.90625 193.6484375 C-31.90625 152.3984375 -31.90625 111.1484375 -31.90625 68.6484375 C-39.16625 68.6484375 -46.42625 68.6484375 -53.90625 68.6484375 C-53.90625 109.8984375 -53.90625 151.1484375 -53.90625 193.6484375 C-65.12625 193.6484375 -76.34625 193.6484375 -87.90625 193.6484375 C-87.90625 167.9084375 -87.90625 142.1684375 -87.90625 115.6484375 C-95.49625 115.9784375 -103.08625 116.3084375 -110.90625 116.6484375 C-109.730625 119.1234375 -109.730625 119.1234375 -108.53125 121.6484375 C-102.78606033 134.47339348 -101.93876383 147.22172603 -106.65234375 160.65625 C-113.27649751 176.46342067 -124.19417993 185.98804048 -139.51171875 192.80859375 C-151.5346041 196.91816505 -167.5847016 196.49273896 -179.0546875 191.1875 C-179.99570312 190.67960938 -180.93671875 190.17171875 -181.90625 189.6484375 C-182.86789062 189.14054688 -183.82953125 188.63265625 -184.8203125 188.109375 C-197.86710481 180.52570234 -205.72069158 169.0483808 -209.78125 154.6484375 C-211.42595993 147.29561666 -211.73754024 139.97359847 -209.90625 132.6484375 C-198.02625 132.6484375 -186.14625 132.6484375 -173.90625 132.6484375 C-173.41125 140.0734375 -173.41125 140.0734375 -172.90625 147.6484375 C-171.07854268 153.90482023 -169.24647162 158.65030199 -163.96484375 162.6484375 C-159.99341326 164.57763333 -156.17643733 164.46718416 -151.90625 163.6484375 C-145.9753331 160.79281085 -143.14711829 156.62652141 -140.65625 150.6484375 C-138.48289302 141.65592378 -138.84541901 132.66479756 -143.5546875 124.640625 C-146.99134881 119.57502596 -149.98113098 117.9207728 -155.90625 116.6484375 C-158.71607657 116.30499952 -161.51672643 116.14800719 -164.34375 116.0234375 C-166.839375 115.8996875 -169.335 115.7759375 -171.90625 115.6484375 C-171.90625 106.7384375 -171.90625 97.8284375 -171.90625 88.6484375 C-144.18625 88.6484375 -116.46625 88.6484375 -87.90625 88.6484375 C-87.90625 82.0484375 -87.90625 75.4484375 -87.90625 68.6484375 C-129.81625 68.6484375 -171.72625 68.6484375 -214.90625 68.6484375 C-214.90625 59.7384375 -214.90625 50.8284375 -214.90625 41.6484375 C-176.29625 41.6484375 -137.68625 41.6484375 -97.90625 41.6484375 C-99.22625 38.3484375 -100.54625 35.0484375 -101.90625 31.6484375 C-103.30368468 23.67217074 -102.13892031 17.07071 -97.8515625 10.2109375 C-88.66714088 -1.88741709 -74.09527174 -9.44302746 -59.22802734 -12.05859375 C-38.76949406 -14.64011215 -17.13481216 -12.2302826 0 0 Z " fill="#FEFDFD" transform="translate(853.90625,49.3515625)"/>
<path d="M0 0 C5.05017577 -0.06942706 10.09865036 -0.12898752 15.14892578 -0.16479492 C16.86154842 -0.1797446 18.57413371 -0.20011186 20.28662109 -0.22631836 C34.23619562 -0.43421675 47.73275749 -0.36325492 58.65185547 9.49072266 C64.63395011 15.77324745 67.56549531 23.29787309 70.8125 31.1875 C71.38858338 32.55462326 71.96604885 33.92116498 72.54492188 35.28710938 C74.74847823 40.5043864 76.89657912 45.7414478 79 51 C83.95 51.33 88.9 51.66 94 52 C94 60.91 94 69.82 94 79 C89.71 79 85.42 79 81 79 C81 120.25 81 161.5 81 204 C69.78 204 58.56 204 47 204 C47 162.75 47 121.5 47 79 C40.4 79 33.8 79 27 79 C27 120.25 27 161.5 27 204 C15.45 204 3.9 204 -8 204 C-8 193.44 -8 182.88 -8 172 C-12.95 172.33 -17.9 172.66 -23 173 C-26.29881259 177.46520195 -26.29881259 177.46520195 -27.625 180.9453125 C-32.68540442 192.18746096 -44.77731852 200.62873456 -56 205 C-72.29194645 209.78050072 -87.5752735 209.08174811 -102.875 201.25 C-116.06729861 193.42074266 -124.30141 182.3215884 -128.68359375 167.72265625 C-130.17964215 161.85195598 -130 157.33399742 -130 151 C-118.45 151 -106.9 151 -95 151 C-95 155.29 -95 159.58 -95 164 C-92.78420988 170.38147554 -89.94320814 173.78708237 -84 177 C-78.58834655 178.80388448 -73.63812737 178.54604246 -68.25 176.75 C-62.67510901 173.74813562 -59.08199707 171.13641241 -57 165 C-56.1568866 157.60733494 -56.32420946 151.93951772 -61 146 C-65.39356996 142.55727727 -69.4558304 142.47087823 -74.8125 142.3125 C-78.8653125 142.1578125 -78.8653125 142.1578125 -83 142 C-83 133.09 -83 124.18 -83 115 C-76.565 114.505 -76.565 114.505 -70 114 C-64.73079632 112.24359877 -62.70203843 109.80362387 -60 105 C-58.15861816 99.47585448 -58.20849253 94.05946576 -60.5625 88.6875 C-62.88737392 84.60677725 -65.58297187 82.53030896 -70 81 C-76.21488304 79.39039 -81.38628029 79.80091518 -87 83 C-93.49085656 88.50311752 -94.0274958 92.24746217 -95 101 C-105.89 101 -116.78 101 -128 101 C-128 86.42324845 -124.36418192 74.63065968 -114.375 63.8125 C-104.33445393 54.39948806 -91.37226627 49.02678029 -77.625 48.5 C-61.69785625 49.10139032 -47.10012177 54.64521139 -36.0390625 66.41015625 C-26.92735084 77.98307738 -23.69609075 89.48419103 -25 104 C-26.30309455 109.5204991 -28.19892176 114.50465396 -30.875 119.5 C-31.431875 120.7375 -31.431875 120.7375 -32 122 C-31.30656014 123.82759589 -31.30656014 123.82759589 -30 126 C-21 142.69135135 -21 142.69135135 -21 151 C-16.71 151 -12.42 151 -8 151 C-8 127.24 -8 103.48 -8 79 C-11.96 79 -15.92 79 -20 79 C-20 70.09 -20 61.18 -20 52 C0.46 51.67 20.92 51.34 42 51 C37.85760861 38.35362449 37.85760861 38.35362449 29 30.1875 C24.65501851 28.46761149 20.56810839 27.883293 15.91796875 27.68359375 C15.0777417 27.64548584 14.23751465 27.60737793 13.37182617 27.56811523 C12.32099854 27.52501221 11.2701709 27.48190918 10.1875 27.4375 C6.825625 27.293125 3.46375 27.14875 0 27 C0 18.09 0 9.18 0 0 Z " fill="#FEFCFD" transform="translate(208,39)"/>
<path d="M0 0 C1.42043117 -0.00135329 2.84086189 -0.00329927 4.2612915 -0.00579834 C7.21948717 -0.00872233 10.17756088 -0.00454355 13.13574219 0.00488281 C16.87514341 0.01623522 20.61425883 0.00953493 24.35365009 -0.00198746 C82.78439657 -0.15553434 82.78439657 -0.15553434 102.86328125 19.015625 C113.05870087 30.33077279 117.30362591 44.54769774 119.890625 59.265625 C120.08140625 60.26851562 120.2721875 61.27140625 120.46875 62.3046875 C121.10300491 68.25963634 120.890625 74.27699453 120.890625 80.265625 C105.710625 80.265625 90.530625 80.265625 74.890625 80.265625 C73.900625 72.345625 73.900625 72.345625 72.890625 64.265625 C70.4200627 57.65323766 68.41494233 53.79304742 62.34375 50.203125 C53.84164699 46.95391366 45.49787839 46.97215452 36.51171875 47 C35.13127067 46.99864945 33.75082306 46.99670568 32.37037659 46.99420166 C29.49174424 46.99126971 26.61323685 46.99548602 23.73461914 47.00488281 C20.06428062 47.01628707 16.39423439 47.00969956 12.72390652 46.99773788 C9.87813657 46.99047602 7.03243478 46.99282678 4.18666267 46.99799347 C2.18160434 46.99995606 0.17654323 46.99393539 -1.82850647 46.98773193 C-11.94246784 47.03950107 -19.91333582 47.96378155 -28.109375 54.265625 C-34.8666077 61.20067961 -35.21976511 70.31802311 -35.27050781 79.57104492 C-35.27547272 80.26480225 -35.28043762 80.95855957 -35.28555298 81.67333984 C-35.30004663 83.9476016 -35.30695574 86.22179357 -35.3125 88.49609375 C-35.31532738 89.28007349 -35.31815475 90.06405323 -35.32106781 90.87178993 C-35.33600994 95.02235876 -35.34527028 99.17289329 -35.34960938 103.32348633 C-35.35508061 107.57869157 -35.37909437 111.83357471 -35.40758133 116.08867931 C-35.42634094 119.38925552 -35.43142038 122.68975626 -35.43294525 125.99038124 C-35.43594334 127.55744496 -35.44387377 129.12450827 -35.45713043 130.69151878 C-35.81520843 148.2601895 -35.81520843 148.2601895 -28.109375 163.265625 C-19.02317869 169.3492734 -10.53615768 170.12319514 0.05859375 169.95703125 C1.58929595 169.95344351 3.12000485 169.95209897 4.65071106 169.9528656 C7.83715002 169.94820812 11.02256002 169.92362843 14.20874023 169.88305664 C18.27030172 169.83195948 22.33074319 169.82061962 26.39258862 169.82289219 C29.54558278 169.82207251 32.69833757 169.80555831 35.8512516 169.78388786 C37.34819041 169.77441982 38.84515596 169.76844745 40.34212303 169.76620674 C49.54657022 169.73731743 57.65065644 169.40960614 65.703125 164.578125 C73.07252681 156.78761452 73.08342082 147.75927935 73.890625 137.265625 C89.400625 137.265625 104.910625 137.265625 120.890625 137.265625 C120.890625 144.40348297 120.79939546 150.72088035 119.640625 157.640625 C119.43928955 158.86543579 119.43928955 158.86543579 119.23388672 160.11499023 C116.37654069 176.64306289 111.04267741 191.1971411 97.6953125 202.05078125 C79.69698179 214.66251477 58.72849018 216.41242956 37.41796875 216.46875 C36.32168246 216.47299107 36.32168246 216.47299107 35.20324898 216.47731781 C31.33219175 216.49222044 27.46117091 216.50150511 23.59008789 216.50585938 C19.6459676 216.51131906 15.70219683 216.53531978 11.75818539 216.56383133 C8.67701831 216.58269784 5.59593127 216.58767594 2.51471138 216.58919525 C1.06342225 216.59217051 -0.38786731 216.60001862 -1.83909798 216.61338043 C-22.0502909 216.78613786 -42.45584809 213.40823065 -59.109375 201.265625 C-60.718125 200.151875 -60.718125 200.151875 -62.359375 199.015625 C-79.35339236 182.02160764 -82.31503148 155.57963766 -82.41291809 132.70906067 C-82.41265646 131.22400893 -82.41171843 129.73895719 -82.41015625 128.25390625 C-82.41406276 126.66798291 -82.41840127 125.08206059 -82.42314148 123.49613953 C-82.43053213 120.19604073 -82.43036595 116.89604903 -82.42504883 113.59594727 C-82.42042159 110.25954697 -82.42732967 106.9235115 -82.44555664 103.5871582 C-82.79029912 39.90581221 -82.79029912 39.90581221 -63.671875 19.078125 C-46.62036729 3.02213944 -22.48328602 -0.07708864 0 0 Z " fill="#FEFEFE" transform="translate(972.109375,927.734375)"/>
<path d="M0 0 C14.19 0 28.38 0 43 0 C43.33 10.56 43.66 21.12 44 32 C47.3 28.37 50.6 24.74 54 21 C70.78965848 6.18559546 85.51507981 -0.74103035 107.87426758 -0.41162109 C110.43025918 -0.37510345 112.98478978 -0.37060344 115.54101562 -0.37109375 C138.57232758 -0.27182145 159.27752967 3.32112889 176.27734375 20.11328125 C187.98854492 32.5301789 194.04540575 46.40824116 197 63 C197.17060944 63.91062195 197.34121887 64.8212439 197.51699829 65.75946045 C198.36472173 71.80293226 198.13050407 77.92471907 198.11352539 84.01342773 C198.11324301 85.4331614 198.11340225 86.85289521 198.1139679 88.27262878 C198.11425389 92.11094774 198.10838923 95.94923521 198.10139394 99.78754687 C198.09512736 103.80473847 198.09455399 107.82193085 198.09336853 111.83912659 C198.09026494 119.43916698 198.08206469 127.03919293 198.07201904 134.63922697 C198.06082767 143.29460353 198.05533984 151.94998078 198.05032361 160.60536277 C198.03988124 178.40358503 198.02154787 196.20178749 198 214 C182.49 214 166.98 214 151 214 C150.9906543 209.93776123 150.98130859 205.87552246 150.97167969 201.69018555 C150.9378748 188.25114174 150.88250583 174.8122588 150.81609726 161.37333965 C150.77636772 153.2273242 150.74394445 145.08140449 150.72900391 136.93530273 C150.7159557 129.83124353 150.68891073 122.72739556 150.64538693 115.62345535 C150.62284289 111.86546687 150.60708504 108.10773822 150.60811615 104.34967613 C150.60886698 100.80447062 150.59074899 97.25983793 150.55883217 93.71478081 C150.54639791 91.80968067 150.55336414 89.90448397 150.56114197 87.99935913 C150.41380865 75.72110248 147.0005265 66.09935746 138.33984375 57.31640625 C127.26118402 47.19671934 113.40265848 45.63511484 98.9375 45.79296875 C84.9828065 46.52669767 72.06138873 51.31196335 61.7734375 60.9921875 C50.91150437 73.2896184 46.71209268 87.13772279 46.68115234 103.19921875 C46.66608391 105.00050484 46.66608391 105.00050484 46.65071106 106.83818054 C46.62523661 110.10827194 46.60831029 113.37826958 46.59528303 116.64842987 C46.5795809 120.07442582 46.55281353 123.50033551 46.5272522 126.92626953 C46.48058914 133.40355089 46.44378497 139.88084871 46.41057932 146.35821152 C46.37226942 153.73678656 46.32288269 161.1152747 46.27259517 168.49377632 C46.16946097 183.66245904 46.08160271 198.8311833 46 214 C30.82 214 15.64 214 0 214 C0 143.38 0 72.76 0 0 Z " fill="#FEFDFD" transform="translate(381,928)"/>
<path d="M0 0 C1.93318588 -0.01441132 1.93318588 -0.01441132 3.90542603 -0.02911377 C5.31113507 -0.03396388 6.71684618 -0.03824218 8.12255859 -0.04199219 C9.19055758 -0.04623325 9.19055758 -0.04623325 10.28013229 -0.05056 C14.05231851 -0.06553636 17.82446669 -0.07477399 21.59667969 -0.07910156 C25.46992067 -0.08456595 29.34280651 -0.10855492 33.21593666 -0.13707352 C36.21362273 -0.15582102 39.21122559 -0.16091201 42.2089653 -0.16243744 C43.63533838 -0.16544021 45.06171084 -0.17338716 46.48802567 -0.18662262 C57.0688122 -0.27775221 67.19323742 0.08440462 75.64599609 7.16113281 C81.1215848 13.41459066 82.89472482 19.38471427 82.90478516 27.72021484 C82.90828979 28.45284042 82.91179443 29.185466 82.91540527 29.94029236 C82.92416907 32.34994131 82.91838879 34.75929362 82.91162109 37.16894531 C82.91297015 38.85798193 82.91491269 40.54701817 82.91741943 42.23605347 C82.9203642 45.77491963 82.91609714 49.31368468 82.90673828 52.85253906 C82.89539665 57.35769869 82.9018736 61.86261858 82.91388321 66.36776924 C82.92116432 69.85793816 82.91878453 73.34805177 82.91362762 76.8382225 C82.91230561 78.49737451 82.91388729 80.15653176 82.91858673 81.81567764 C82.98014974 109.67967326 82.98014974 109.67967326 73.95849609 118.91113281 C65.72035589 125.10393948 55.86219027 124.62095805 46.02490234 124.59472656 C44.51472237 124.59929758 43.00454446 124.60460586 41.49436951 124.61061096 C38.34161892 124.61950426 35.18912216 124.6171624 32.03637695 124.60717773 C28.02073583 124.5956917 24.00597462 124.61591245 19.99044895 124.64509487 C16.87520396 124.66354904 13.7601663 124.66314625 10.64488029 124.65745735 C9.16548363 124.65730527 7.68607189 124.66325516 6.20672798 124.67574883 C-3.4894643 124.74611944 -12.15140905 124.30025608 -20.01025391 118.04785156 C-20.92291016 116.95923828 -20.92291016 116.95923828 -21.85400391 115.84863281 C-22.48306641 115.130625 -23.11212891 114.41261719 -23.76025391 113.67285156 C-27.26136128 108.15517499 -27.65011165 102.26941268 -27.62866211 95.89013672 C-27.63377304 95.09402481 -27.63888397 94.2979129 -27.64414978 93.47767639 C-27.65796991 90.86427138 -27.65709466 88.25113237 -27.65478516 85.63769531 C-27.65867642 83.80837914 -27.66301198 81.97906387 -27.66777039 80.14974976 C-27.67521644 76.32180854 -27.67495317 72.49395959 -27.66967773 68.66601562 C-27.66388716 63.77826258 -27.68081202 58.89088898 -27.70402241 54.00319862 C-27.71880691 50.22663187 -27.71962501 46.45015548 -27.71651268 42.67356491 C-27.71702358 40.87237166 -27.72221765 39.07117305 -27.7323246 37.27000809 C-27.82976329 17.4770001 -27.82976329 17.4770001 -22.22900391 8.91113281 C-15.65337502 2.62140084 -8.98694187 0.05413869 0 0 Z " fill="#A41D23" transform="translate(192.35400390625,973.8388671875)"/>
<path d="M0 0 C4.17679223 2.20742387 7.18767427 4.9084373 10 8.6875 C11.78864045 14.61237148 11.83000186 20.41234713 9.9375 26.3125 C7.05002023 30.31771387 3.44758019 33.77620991 -1 36 C-5.89911617 36.53749296 -9.8447045 36.56674874 -14.3125 34.375 C-18.77509846 30.43130834 -22.57324624 26.77372255 -23.2734375 20.58203125 C-23.52475195 13.7288794 -22.67713722 9.16433901 -18 4 C-11.99333717 -0.68519701 -7.31784652 -1.91517146 0 0 Z " fill="#A41F25" transform="translate(509,170)"/>
<path d="M0 0 C2.67197955 2.29696487 4.41902079 4.83804158 6 8 C6.125 9.953125 6.125 9.953125 6 12.25 C5.979375 12.99765625 5.95875 13.7453125 5.9375 14.515625 C4.37730629 18.65013834 1.9065468 20.96807403 -2 23 C-6.3786497 23.83699771 -10.61748189 23.79422014 -15.0625 23.6875 C-16.22072266 23.70232422 -17.37894531 23.71714844 -18.57226562 23.73242188 C-27.97151712 23.64064285 -27.97151712 23.64064285 -31.74609375 20.58203125 C-35.30943791 16.49993334 -35.35320194 13.75912226 -35.26953125 8.47265625 C-34.87184813 4.82434585 -33.78331315 3.36581618 -31 1 C-20.75976767 -5.28523655 -10.76813589 -5.45053792 0 0 Z " fill="#A51F25" transform="translate(825,68)"/>
<path d="M0 0 C3.02164875 3.02164875 4.3020304 5.08756032 4.375 9.3125 C4.27816838 13.88593189 3.00755318 16.47686628 0 20 C-4.8274682 23.21831213 -10.07246589 22.45052258 -15.75 22.5 C-16.91789062 22.54125 -18.08578125 22.5825 -19.2890625 22.625 C-28.95798039 22.71269994 -28.95798039 22.71269994 -33.25390625 19.25 C-36.33994482 16.01363314 -37.12424421 13.59446957 -37.2578125 9.171875 C-36.82117119 5.49350277 -35.50624834 3.68963237 -33 1 C-22.83122056 -6.67337344 -10.78689836 -7.19126557 0 0 Z " fill="#A51F25" transform="translate(1071,69)"/>
<path d="M0 0 C9.9 0 19.8 0 30 0 C30 11.55 30 23.1 30 35 C23.07 35 16.14 35 9 35 C8.9175 32.6075 8.835 30.215 8.75 27.75 C8.19924058 17.19287959 5.26530452 9.2142829 0 0 Z " fill="#A41F25" transform="translate(987,118)"/>
</svg>
